<svg xmlns="http://www.w3.org/2000/svg" xmlns:xlink="http://www.w3.org/1999/xlink" viewBox="0,0,256,256" width="50px" height="50px"><g fill="#ffffff" fill-rule="nonzero" stroke="none" stroke-width="1" stroke-linecap="butt" stroke-linejoin="miter" stroke-miterlimit="10" stroke-dasharray="" stroke-dashoffset="0" font-family="none" font-weight="none" font-size="none" text-anchor="none" style="mix-blend-mode: normal"><g transform="scale(5.12,5.12)"><path d="M29,3c-0.9381,0 -1.82111,0.36844 -2.48633,0.98438c-0.66521,0.61594 -1.14032,1.44434 -1.50195,2.41797c-0.64422,1.73443 -0.92861,3.99697 -0.98633,6.63281c-4.79848,0.15157 -9.20754,1.39435 -12.74609,3.44531c-1.06595,-1.00377 -2.42024,-1.51172 -3.7793,-1.51172c-1.41189,0 -2.82293,0.54168 -3.90625,1.625c-2.16665,2.16665 -2.16665,5.64585 0,7.8125l0.23438,0.23633c-0.53359,1.38115 -0.82812,2.84158 -0.82812,4.35742c0,4.52751 2.57231,8.57334 6.56836,11.42578c3.99605,2.85244 9.43911,4.57422 15.43164,4.57422c5.99253,0 11.43559,-1.72178 15.43164,-4.57422c3.99605,-2.85244 6.56836,-6.89827 6.56836,-11.42578c0,-1.51585 -0.29454,-2.97628 -0.82812,-4.35742l0.23438,-0.23633c2.16665,-2.16665 2.16665,-5.64585 0,-7.8125c-1.08332,-1.08332 -2.49436,-1.625 -3.90625,-1.625c-1.35906,0 -2.71334,0.50795 -3.7793,1.51172c-3.52605,-2.04371 -7.91657,-3.28453 -12.69531,-3.44336c0.06248,-2.48762 0.35078,-4.5649 0.86133,-5.93945c0.28837,-0.77637 0.63904,-1.32297 0.98633,-1.64453c0.34729,-0.32156 0.66505,-0.45312 1.12695,-0.45312c0.46191,0 0.69328,0.11812 1.03906,0.40039c0.34579,0.28227 0.74326,0.75711 1.26953,1.29688c0.92945,0.95328 2.50894,1.89292 4.85938,2.12891c0.41118,2.34179 2.37895,4.17383 4.83203,4.17383c2.74546,0 5,-2.25455 5,-5c0,-2.74545 -2.25455,-5 -5,-5c-2.3411,0 -4.23391,1.67225 -4.76758,3.85742c-1.7572,-0.17799 -2.72169,-0.76444 -3.49219,-1.55469c-0.44873,-0.46023 -0.86258,-0.9854 -1.43555,-1.45313c-0.57296,-0.46773 -1.36659,-0.84961 -2.30469,-0.84961zM41,5c1.65454,0 3,1.34545 3,3c0,1.65455 -1.34546,3 -3,3c-1.65454,0 -3,-1.34545 -3,-3c0,-1.65455 1.34546,-3 3,-3zM25,15c5.60747,0 10.66558,1.62861 14.26953,4.20117c3.60395,2.57256 5.73047,6.02634 5.73047,9.79883c0,3.77249 -2.12652,7.22627 -5.73047,9.79883c-3.60395,2.57256 -8.66206,4.20117 -14.26953,4.20117c-5.60747,0 -10.66558,-1.62861 -14.26953,-4.20117c-3.60395,-2.57256 -5.73047,-6.02634 -5.73047,-9.79883c0,-3.77249 2.12652,-7.22627 5.73047,-9.79883c3.60395,-2.57256 8.66206,-4.20117 14.26953,-4.20117zM7.5,16.93359c0.70176,0 1.40032,0.23185 2.01758,0.67969c-1.98742,1.42836 -3.62042,3.15146 -4.75391,5.08398c-1.16603,-1.41796 -1.09607,-3.34924 0.24414,-4.68945c0.71668,-0.71668 1.60443,-1.07422 2.49219,-1.07422zM42.5,16.93359c0.88776,0 1.77551,0.35754 2.49219,1.07422c1.34021,1.34021 1.41017,3.27149 0.24414,4.68945c-1.13349,-1.93252 -2.76648,-3.65562 -4.75391,-5.08398c0.61726,-0.44784 1.31581,-0.67969 2.01758,-0.67969zM17,22c-2.2098,0 -4,1.7902 -4,4c0,2.2098 1.7902,4 4,4c2.2098,0 4,-1.7902 4,-4c0,-2.2098 -1.7902,-4 -4,-4zM33,22c-2.2098,0 -4,1.7902 -4,4c0,2.2098 1.7902,4 4,4c2.2098,0 4,-1.7902 4,-4c0,-2.2098 -1.7902,-4 -4,-4zM17,24c1.1902,0 2,0.8098 2,2c0,1.1902 -0.8098,2 -2,2c-1.1902,0 -2,-0.8098 -2,-2c0,-1.1902 0.8098,-2 2,-2zM33,24c1.1902,0 2,0.8098 2,2c0,1.1902 -0.8098,2 -2,2c-1.1902,0 -2,-0.8098 -2,-2c0,-1.1902 0.8098,-2 2,-2zM34.125,33.97656c-0.33924,-0.00306 -0.6569,0.16606 -0.84375,0.44922c0,0 -0.50703,0.74256 -1.82812,1.57813c-1.32109,0.83556 -3.39287,1.69531 -6.45312,1.69531c-3.06026,0 -5.13203,-0.85975 -6.45312,-1.69531c-1.32109,-0.83556 -1.82812,-1.57812 -1.82812,-1.57812c-0.19146,-0.28164 -0.51308,-0.4465 -0.85352,-0.4375c-0.37071,0.01004 -0.70542,0.22439 -0.86963,0.5569c-0.16421,0.33251 -0.13094,0.72858 0.08643,1.02904c0,0 0.79258,1.10666 2.39648,2.12109c1.60391,1.01444 4.08174,2.00391 7.52148,2.00391c3.43974,0 5.91758,-0.98947 7.52148,-2.00391c1.60391,-1.01444 2.39648,-2.12109 2.39648,-2.12109c0.22506,-0.30201 0.26136,-0.70485 0.09391,-1.04223c-0.16745,-0.33737 -0.51025,-0.55206 -0.88687,-0.55543z"></path></g></g></svg>